<svg width="1360" height="800" viewBox="0 0 1360 800" fill="none" xmlns="http://www.w3.org/2000/svg">
<g clip-path="url(#clip0_4359_438)">
<rect x="-0.5" y="0.5" width="79" height="79" transform="matrix(-1 0 0 1 1359 0)" fill="white" stroke="#F1F0F4"/>
<mask id="path-2-inside-1_4359_438" fill="white">
<path d="M1280 0H1200V80H1280V0Z"/>
</mask>
<path d="M1280 0H1200V80H1280V0Z" fill="white"/>
<path d="M1200 0H1199V-1H1200V0ZM1200 80V81H1199V80H1200ZM1280 1H1200V-1H1280V1ZM1201 0V80H1199V0H1201ZM1200 79H1280V81H1200V79Z" fill="#F1F0F4" mask="url(#path-2-inside-1_4359_438)"/>
<mask id="path-4-inside-2_4359_438" fill="white">
<path d="M1200 0H1120V80H1200V0Z"/>
</mask>
<path d="M1200 0H1120V80H1200V0Z" fill="white"/>
<path d="M1120 0H1119V-1H1120V0ZM1120 80V81H1119V80H1120ZM1200 1H1120V-1H1200V1ZM1121 0V80H1119V0H1121ZM1120 79H1200V81H1120V79Z" fill="#F1F0F4" mask="url(#path-4-inside-2_4359_438)"/>
<mask id="path-6-inside-3_4359_438" fill="white">
<path d="M1120 0H1040V80H1120V0Z"/>
</mask>
<path d="M1120 0H1040V80H1120V0Z" fill="white"/>
<path d="M1040 0H1039V-1H1040V0ZM1040 80V81H1039V80H1040ZM1120 1H1040V-1H1120V1ZM1041 0V80H1039V0H1041ZM1040 79H1120V81H1040V79Z" fill="#F1F0F4" mask="url(#path-6-inside-3_4359_438)"/>
<mask id="path-8-inside-4_4359_438" fill="white">
<path d="M1040 0H960V80H1040V0Z"/>
</mask>
<path d="M1040 0H960V80H1040V0Z" fill="white"/>
<path d="M960 0H959V-1H960V0ZM960 80V81H959V80H960ZM1040 1H960V-1H1040V1ZM961 0V80H959V0H961ZM960 79H1040V81H960V79Z" fill="#F1F0F4" mask="url(#path-8-inside-4_4359_438)"/>
<mask id="path-10-inside-5_4359_438" fill="white">
<path d="M960 0H880V80H960V0Z"/>
</mask>
<path d="M960 0H880V80H960V0Z" fill="white"/>
<path d="M880 0H879V-1H880V0ZM880 80V81H879V80H880ZM960 1H880V-1H960V1ZM881 0V80H879V0H881ZM880 79H960V81H880V79Z" fill="#F1F0F4" mask="url(#path-10-inside-5_4359_438)"/>
<mask id="path-12-inside-6_4359_438" fill="white">
<path d="M880 0H800V80H880V0Z"/>
</mask>
<path d="M880 0H800V80H880V0Z" fill="white"/>
<path d="M800 0H799V-1H800V0ZM800 80V81H799V80H800ZM880 1H800V-1H880V1ZM801 0V80H799V0H801ZM800 79H880V81H800V79Z" fill="#F1F0F4" mask="url(#path-12-inside-6_4359_438)"/>
<mask id="path-14-inside-7_4359_438" fill="white">
<path d="M800 0H720V80H800V0Z"/>
</mask>
<path d="M800 0H720V80H800V0Z" fill="white"/>
<path d="M720 0H719V-1H720V0ZM720 80V81H719V80H720ZM800 1H720V-1H800V1ZM721 0V80H719V0H721ZM720 79H800V81H720V79Z" fill="#F1F0F4" mask="url(#path-14-inside-7_4359_438)"/>
<mask id="path-16-inside-8_4359_438" fill="white">
<path d="M720 0H640V80H720V0Z"/>
</mask>
<path d="M720 0H640V80H720V0Z" fill="white"/>
<path d="M640 0H639V-1H640V0ZM640 80V81H639V80H640ZM720 1H640V-1H720V1ZM641 0V80H639V0H641ZM640 79H720V81H640V79Z" fill="#F1F0F4" mask="url(#path-16-inside-8_4359_438)"/>
<mask id="path-18-inside-9_4359_438" fill="white">
<path d="M640 0H560V80H640V0Z"/>
</mask>
<path d="M640 0H560V80H640V0Z" fill="white"/>
<path d="M560 0H559V-1H560V0ZM560 80V81H559V80H560ZM640 1H560V-1H640V1ZM561 0V80H559V0H561ZM560 79H640V81H560V79Z" fill="#F1F0F4" mask="url(#path-18-inside-9_4359_438)"/>
<mask id="path-20-inside-10_4359_438" fill="white">
<path d="M560 0H480V80H560V0Z"/>
</mask>
<path d="M560 0H480V80H560V0Z" fill="white"/>
<path d="M480 0H479V-1H480V0ZM480 80V81H479V80H480ZM560 1H480V-1H560V1ZM481 0V80H479V0H481ZM480 79H560V81H480V79Z" fill="#F1F0F4" mask="url(#path-20-inside-10_4359_438)"/>
<mask id="path-22-inside-11_4359_438" fill="white">
<path d="M480 0H400V80H480V0Z"/>
</mask>
<path d="M480 0H400V80H480V0Z" fill="white"/>
<path d="M400 0H399V-1H400V0ZM400 80V81H399V80H400ZM480 1H400V-1H480V1ZM401 0V80H399V0H401ZM400 79H480V81H400V79Z" fill="#F1F0F4" mask="url(#path-22-inside-11_4359_438)"/>
<mask id="path-24-inside-12_4359_438" fill="white">
<path d="M400 0H320V80H400V0Z"/>
</mask>
<path d="M400 0H320V80H400V0Z" fill="white"/>
<path d="M320 0H319V-1H320V0ZM320 80V81H319V80H320ZM400 1H320V-1H400V1ZM321 0V80H319V0H321ZM320 79H400V81H320V79Z" fill="#F1F0F4" mask="url(#path-24-inside-12_4359_438)"/>
<mask id="path-26-inside-13_4359_438" fill="white">
<path d="M320 0H240V80H320V0Z"/>
</mask>
<path d="M320 0H240V80H320V0Z" fill="white"/>
<path d="M240 0H239V-1H240V0ZM240 80V81H239V80H240ZM320 1H240V-1H320V1ZM241 0V80H239V0H241ZM240 79H320V81H240V79Z" fill="#F1F0F4" mask="url(#path-26-inside-13_4359_438)"/>
<mask id="path-28-inside-14_4359_438" fill="white">
<path d="M240 0H160V80H240V0Z"/>
</mask>
<path d="M240 0H160V80H240V0Z" fill="white"/>
<path d="M160 0H159V-1H160V0ZM160 80V81H159V80H160ZM240 1H160V-1H240V1ZM161 0V80H159V0H161ZM160 79H240V81H160V79Z" fill="#F1F0F4" mask="url(#path-28-inside-14_4359_438)"/>
<mask id="path-30-inside-15_4359_438" fill="white">
<path d="M160 0H80V80H160V0Z"/>
</mask>
<path d="M160 0H80V80H160V0Z" fill="white"/>
<path d="M80 0H79V-1H80V0ZM80 80V81H79V80H80ZM160 1H80V-1H160V1ZM81 0V80H79V0H81ZM80 79H160V81H80V79Z" fill="#F1F0F4" mask="url(#path-30-inside-15_4359_438)"/>
<mask id="path-32-inside-16_4359_438" fill="white">
<path d="M80 0H0V80H80V0Z"/>
</mask>
<path d="M80 0H0V80H80V0Z" fill="white"/>
<path d="M0 0H-1V-1H0V0ZM0 80V81H-1V80H0ZM80 1H0V-1H80V1ZM1 0V80H-1V0H1ZM0 79H80V81H0V79Z" fill="#F1F0F4" mask="url(#path-32-inside-16_4359_438)"/>
<mask id="path-34-inside-17_4359_438" fill="white">
<path d="M1360 80H1280V160H1360V80Z"/>
</mask>
<path d="M1360 80H1280V160H1360V80Z" fill="white"/>
<path d="M1280 160V161H1279V160H1280ZM1360 160H1361V161H1360V160ZM1281 80V160H1279V80H1281ZM1280 159H1360V161H1280V159ZM1359 160V80H1361V160H1359Z" fill="#F1F0F4" mask="url(#path-34-inside-17_4359_438)"/>
<mask id="path-36-inside-18_4359_438" fill="white">
<path d="M1280 80H1200V160H1280V80Z"/>
</mask>
<path d="M1280 80H1200V160H1280V80Z" fill="white"/>
<path d="M1200 160V161H1199V160H1200ZM1201 80V160H1199V80H1201ZM1200 159H1280V161H1200V159Z" fill="#F1F0F4" mask="url(#path-36-inside-18_4359_438)"/>
<mask id="path-38-inside-19_4359_438" fill="white">
<path d="M1200 80H1120V160H1200V80Z"/>
</mask>
<path d="M1200 80H1120V160H1200V80Z" fill="white"/>
<path d="M1120 160V161H1119V160H1120ZM1121 80V160H1119V80H1121ZM1120 159H1200V161H1120V159Z" fill="#F1F0F4" mask="url(#path-38-inside-19_4359_438)"/>
<mask id="path-40-inside-20_4359_438" fill="white">
<path d="M1120 80H1040V160H1120V80Z"/>
</mask>
<path d="M1120 80H1040V160H1120V80Z" fill="white"/>
<path d="M1040 160V161H1039V160H1040ZM1041 80V160H1039V80H1041ZM1040 159H1120V161H1040V159Z" fill="#F1F0F4" mask="url(#path-40-inside-20_4359_438)"/>
<mask id="path-42-inside-21_4359_438" fill="white">
<path d="M1040 80H960V160H1040V80Z"/>
</mask>
<path d="M1040 80H960V160H1040V80Z" fill="white"/>
<path d="M960 160V161H959V160H960ZM961 80V160H959V80H961ZM960 159H1040V161H960V159Z" fill="#F1F0F4" mask="url(#path-42-inside-21_4359_438)"/>
<mask id="path-44-inside-22_4359_438" fill="white">
<path d="M960 80H880V160H960V80Z"/>
</mask>
<path d="M960 80H880V160H960V80Z" fill="white"/>
<path d="M880 160V161H879V160H880ZM881 80V160H879V80H881ZM880 159H960V161H880V159Z" fill="#F1F0F4" mask="url(#path-44-inside-22_4359_438)"/>
<mask id="path-46-inside-23_4359_438" fill="white">
<path d="M880 80H800V160H880V80Z"/>
</mask>
<path d="M880 80H800V160H880V80Z" fill="white"/>
<path d="M800 160V161H799V160H800ZM801 80V160H799V80H801ZM800 159H880V161H800V159Z" fill="#F1F0F4" mask="url(#path-46-inside-23_4359_438)"/>
<mask id="path-48-inside-24_4359_438" fill="white">
<path d="M800 80H720V160H800V80Z"/>
</mask>
<path d="M800 80H720V160H800V80Z" fill="white"/>
<path d="M720 160V161H719V160H720ZM721 80V160H719V80H721ZM720 159H800V161H720V159Z" fill="#F1F0F4" mask="url(#path-48-inside-24_4359_438)"/>
<mask id="path-50-inside-25_4359_438" fill="white">
<path d="M720 80H640V160H720V80Z"/>
</mask>
<path d="M720 80H640V160H720V80Z" fill="white"/>
<path d="M640 160V161H639V160H640ZM641 80V160H639V80H641ZM640 159H720V161H640V159Z" fill="#F1F0F4" mask="url(#path-50-inside-25_4359_438)"/>
<mask id="path-52-inside-26_4359_438" fill="white">
<path d="M640 80H560V160H640V80Z"/>
</mask>
<path d="M640 80H560V160H640V80Z" fill="white"/>
<path d="M560 160V161H559V160H560ZM561 80V160H559V80H561ZM560 159H640V161H560V159Z" fill="#F1F0F4" mask="url(#path-52-inside-26_4359_438)"/>
<mask id="path-54-inside-27_4359_438" fill="white">
<path d="M560 80H480V160H560V80Z"/>
</mask>
<path d="M560 80H480V160H560V80Z" fill="white"/>
<path d="M480 160V161H479V160H480ZM481 80V160H479V80H481ZM480 159H560V161H480V159Z" fill="#F1F0F4" mask="url(#path-54-inside-27_4359_438)"/>
<mask id="path-56-inside-28_4359_438" fill="white">
<path d="M480 80H400V160H480V80Z"/>
</mask>
<path d="M480 80H400V160H480V80Z" fill="white"/>
<path d="M400 160V161H399V160H400ZM401 80V160H399V80H401ZM400 159H480V161H400V159Z" fill="#F1F0F4" mask="url(#path-56-inside-28_4359_438)"/>
<mask id="path-58-inside-29_4359_438" fill="white">
<path d="M400 80H320V160H400V80Z"/>
</mask>
<path d="M400 80H320V160H400V80Z" fill="white"/>
<path d="M320 160V161H319V160H320ZM321 80V160H319V80H321ZM320 159H400V161H320V159Z" fill="#F1F0F4" mask="url(#path-58-inside-29_4359_438)"/>
<mask id="path-60-inside-30_4359_438" fill="white">
<path d="M320 80H240V160H320V80Z"/>
</mask>
<path d="M320 80H240V160H320V80Z" fill="white"/>
<path d="M240 160V161H239V160H240ZM241 80V160H239V80H241ZM240 159H320V161H240V159Z" fill="#F1F0F4" mask="url(#path-60-inside-30_4359_438)"/>
<mask id="path-62-inside-31_4359_438" fill="white">
<path d="M240 80H160V160H240V80Z"/>
</mask>
<path d="M240 80H160V160H240V80Z" fill="#F1F0F4"/>
<path d="M160 160V161H159V160H160ZM161 80V160H159V80H161ZM160 159H240V161H160V159Z" fill="#F1F0F4" mask="url(#path-62-inside-31_4359_438)"/>
<mask id="path-64-inside-32_4359_438" fill="white">
<path d="M160 80H80V160H160V80Z"/>
</mask>
<path d="M160 80H80V160H160V80Z" fill="white"/>
<path d="M80 160V161H79V160H80ZM81 80V160H79V80H81ZM80 159H160V161H80V159Z" fill="#F1F0F4" mask="url(#path-64-inside-32_4359_438)"/>
<mask id="path-66-inside-33_4359_438" fill="white">
<path d="M80 80H0V160H80V80Z"/>
</mask>
<path d="M80 80H0V160H80V80Z" fill="white"/>
<path d="M0 160V161H-1V160H0ZM1 80V160H-1V80H1ZM0 159H80V161H0V159Z" fill="#F1F0F4" mask="url(#path-66-inside-33_4359_438)"/>
<mask id="path-68-inside-34_4359_438" fill="white">
<path d="M1360 160H1280V240H1360V160Z"/>
</mask>
<path d="M1360 160H1280V240H1360V160Z" fill="white"/>
<path d="M1280 240V241H1279V240H1280ZM1360 240H1361V241H1360V240ZM1281 160V240H1279V160H1281ZM1280 239H1360V241H1280V239ZM1359 240V160H1361V240H1359Z" fill="#F1F0F4" mask="url(#path-68-inside-34_4359_438)"/>
<mask id="path-70-inside-35_4359_438" fill="white">
<path d="M1280 160H1200V240H1280V160Z"/>
</mask>
<path d="M1280 160H1200V240H1280V160Z" fill="white"/>
<path d="M1200 240V241H1199V240H1200ZM1201 160V240H1199V160H1201ZM1200 239H1280V241H1200V239Z" fill="#F1F0F4" mask="url(#path-70-inside-35_4359_438)"/>
<mask id="path-72-inside-36_4359_438" fill="white">
<path d="M1200 160H1120V240H1200V160Z"/>
</mask>
<path d="M1200 160H1120V240H1200V160Z" fill="white"/>
<path d="M1120 240V241H1119V240H1120ZM1121 160V240H1119V160H1121ZM1120 239H1200V241H1120V239Z" fill="#F1F0F4" mask="url(#path-72-inside-36_4359_438)"/>
<mask id="path-74-inside-37_4359_438" fill="white">
<path d="M1120 160H1040V240H1120V160Z"/>
</mask>
<path d="M1120 160H1040V240H1120V160Z" fill="white"/>
<path d="M1040 240V241H1039V240H1040ZM1041 160V240H1039V160H1041ZM1040 239H1120V241H1040V239Z" fill="#F1F0F4" mask="url(#path-74-inside-37_4359_438)"/>
<mask id="path-76-inside-38_4359_438" fill="white">
<path d="M1040 160H960V240H1040V160Z"/>
</mask>
<path d="M1040 160H960V240H1040V160Z" fill="white"/>
<path d="M960 240V241H959V240H960ZM961 160V240H959V160H961ZM960 239H1040V241H960V239Z" fill="#F1F0F4" mask="url(#path-76-inside-38_4359_438)"/>
<mask id="path-78-inside-39_4359_438" fill="white">
<path d="M960 160H880V240H960V160Z"/>
</mask>
<path d="M960 160H880V240H960V160Z" fill="white"/>
<path d="M880 240V241H879V240H880ZM881 160V240H879V160H881ZM880 239H960V241H880V239Z" fill="#F1F0F4" mask="url(#path-78-inside-39_4359_438)"/>
<mask id="path-80-inside-40_4359_438" fill="white">
<path d="M880 160H800V240H880V160Z"/>
</mask>
<path d="M880 160H800V240H880V160Z" fill="white"/>
<path d="M800 240V241H799V240H800ZM801 160V240H799V160H801ZM800 239H880V241H800V239Z" fill="#F1F0F4" mask="url(#path-80-inside-40_4359_438)"/>
<mask id="path-82-inside-41_4359_438" fill="white">
<path d="M800 160H720V240H800V160Z"/>
</mask>
<path d="M800 160H720V240H800V160Z" fill="white"/>
<path d="M720 240V241H719V240H720ZM721 160V240H719V160H721ZM720 239H800V241H720V239Z" fill="#F1F0F4" mask="url(#path-82-inside-41_4359_438)"/>
<mask id="path-84-inside-42_4359_438" fill="white">
<path d="M720 160H640V240H720V160Z"/>
</mask>
<path d="M720 160H640V240H720V160Z" fill="white"/>
<path d="M640 240V241H639V240H640ZM641 160V240H639V160H641ZM640 239H720V241H640V239Z" fill="#F1F0F4" mask="url(#path-84-inside-42_4359_438)"/>
<mask id="path-86-inside-43_4359_438" fill="white">
<path d="M640 160H560V240H640V160Z"/>
</mask>
<path d="M640 160H560V240H640V160Z" fill="white"/>
<path d="M560 240V241H559V240H560ZM561 160V240H559V160H561ZM560 239H640V241H560V239Z" fill="#F1F0F4" mask="url(#path-86-inside-43_4359_438)"/>
<mask id="path-88-inside-44_4359_438" fill="white">
<path d="M560 160H480V240H560V160Z"/>
</mask>
<path d="M560 160H480V240H560V160Z" fill="white"/>
<path d="M480 240V241H479V240H480ZM481 160V240H479V160H481ZM480 239H560V241H480V239Z" fill="#F1F0F4" mask="url(#path-88-inside-44_4359_438)"/>
<mask id="path-90-inside-45_4359_438" fill="white">
<path d="M480 160H400V240H480V160Z"/>
</mask>
<path d="M480 160H400V240H480V160Z" fill="white"/>
<path d="M400 240V241H399V240H400ZM401 160V240H399V160H401ZM400 239H480V241H400V239Z" fill="#F1F0F4" mask="url(#path-90-inside-45_4359_438)"/>
<mask id="path-92-inside-46_4359_438" fill="white">
<path d="M400 160H320V240H400V160Z"/>
</mask>
<path d="M400 160H320V240H400V160Z" fill="white"/>
<path d="M320 240V241H319V240H320ZM321 160V240H319V160H321ZM320 239H400V241H320V239Z" fill="#F1F0F4" mask="url(#path-92-inside-46_4359_438)"/>
<mask id="path-94-inside-47_4359_438" fill="white">
<path d="M320 160H240V240H320V160Z"/>
</mask>
<path d="M320 160H240V240H320V160Z" fill="white"/>
<path d="M240 240V241H239V240H240ZM241 160V240H239V160H241ZM240 239H320V241H240V239Z" fill="#F1F0F4" mask="url(#path-94-inside-47_4359_438)"/>
<mask id="path-96-inside-48_4359_438" fill="white">
<path d="M240 160H160V240H240V160Z"/>
</mask>
<path d="M240 160H160V240H240V160Z" fill="white"/>
<path d="M160 240V241H159V240H160ZM161 160V240H159V160H161ZM160 239H240V241H160V239Z" fill="#F1F0F4" mask="url(#path-96-inside-48_4359_438)"/>
<mask id="path-98-inside-49_4359_438" fill="white">
<path d="M160 160H80V240H160V160Z"/>
</mask>
<path d="M160 160H80V240H160V160Z" fill="#F1F0F4"/>
<path d="M80 240V241H79V240H80ZM81 160V240H79V160H81ZM80 239H160V241H80V239Z" fill="#F1F0F4" mask="url(#path-98-inside-49_4359_438)"/>
<mask id="path-100-inside-50_4359_438" fill="white">
<path d="M80 160H0V240H80V160Z"/>
</mask>
<path d="M80 160H0V240H80V160Z" fill="white"/>
<path d="M0 240V241H-1V240H0ZM1 160V240H-1V160H1ZM0 239H80V241H0V239Z" fill="#F1F0F4" mask="url(#path-100-inside-50_4359_438)"/>
<mask id="path-102-inside-51_4359_438" fill="white">
<path d="M1360 240H1280V320H1360V240Z"/>
</mask>
<path d="M1360 240H1280V320H1360V240Z" fill="white"/>
<path d="M1280 320V321H1279V320H1280ZM1360 320H1361V321H1360V320ZM1281 240V320H1279V240H1281ZM1280 319H1360V321H1280V319ZM1359 320V240H1361V320H1359Z" fill="#F1F0F4" mask="url(#path-102-inside-51_4359_438)"/>
<mask id="path-104-inside-52_4359_438" fill="white">
<path d="M1280 240H1200V320H1280V240Z"/>
</mask>
<path d="M1280 240H1200V320H1280V240Z" fill="white"/>
<path d="M1200 320V321H1199V320H1200ZM1201 240V320H1199V240H1201ZM1200 319H1280V321H1200V319Z" fill="#F1F0F4" mask="url(#path-104-inside-52_4359_438)"/>
<mask id="path-106-inside-53_4359_438" fill="white">
<path d="M1200 240H1120V320H1200V240Z"/>
</mask>
<path d="M1200 240H1120V320H1200V240Z" fill="white"/>
<path d="M1120 320V321H1119V320H1120ZM1121 240V320H1119V240H1121ZM1120 319H1200V321H1120V319Z" fill="#F1F0F4" mask="url(#path-106-inside-53_4359_438)"/>
<mask id="path-108-inside-54_4359_438" fill="white">
<path d="M1120 240H1040V320H1120V240Z"/>
</mask>
<path d="M1120 240H1040V320H1120V240Z" fill="white"/>
<path d="M1040 320V321H1039V320H1040ZM1041 240V320H1039V240H1041ZM1040 319H1120V321H1040V319Z" fill="#F1F0F4" mask="url(#path-108-inside-54_4359_438)"/>
<mask id="path-110-inside-55_4359_438" fill="white">
<path d="M1040 240H960V320H1040V240Z"/>
</mask>
<path d="M1040 240H960V320H1040V240Z" fill="white"/>
<path d="M960 320V321H959V320H960ZM961 240V320H959V240H961ZM960 319H1040V321H960V319Z" fill="#F1F0F4" mask="url(#path-110-inside-55_4359_438)"/>
<mask id="path-112-inside-56_4359_438" fill="white">
<path d="M960 240H880V320H960V240Z"/>
</mask>
<path d="M960 240H880V320H960V240Z" fill="white"/>
<path d="M880 320V321H879V320H880ZM881 240V320H879V240H881ZM880 319H960V321H880V319Z" fill="#F1F0F4" mask="url(#path-112-inside-56_4359_438)"/>
<mask id="path-114-inside-57_4359_438" fill="white">
<path d="M880 240H800V320H880V240Z"/>
</mask>
<path d="M880 240H800V320H880V240Z" fill="white"/>
<path d="M800 320V321H799V320H800ZM801 240V320H799V240H801ZM800 319H880V321H800V319Z" fill="#F1F0F4" mask="url(#path-114-inside-57_4359_438)"/>
<mask id="path-116-inside-58_4359_438" fill="white">
<path d="M800 240H720V320H800V240Z"/>
</mask>
<path d="M800 240H720V320H800V240Z" fill="white"/>
<path d="M720 320V321H719V320H720ZM721 240V320H719V240H721ZM720 319H800V321H720V319Z" fill="#F1F0F4" mask="url(#path-116-inside-58_4359_438)"/>
<mask id="path-118-inside-59_4359_438" fill="white">
<path d="M720 240H640V320H720V240Z"/>
</mask>
<path d="M720 240H640V320H720V240Z" fill="white"/>
<path d="M640 320V321H639V320H640ZM641 240V320H639V240H641ZM640 319H720V321H640V319Z" fill="#F1F0F4" mask="url(#path-118-inside-59_4359_438)"/>
<mask id="path-120-inside-60_4359_438" fill="white">
<path d="M640 240H560V320H640V240Z"/>
</mask>
<path d="M640 240H560V320H640V240Z" fill="white"/>
<path d="M560 320V321H559V320H560ZM561 240V320H559V240H561ZM560 319H640V321H560V319Z" fill="#F1F0F4" mask="url(#path-120-inside-60_4359_438)"/>
<mask id="path-122-inside-61_4359_438" fill="white">
<path d="M560 240H480V320H560V240Z"/>
</mask>
<path d="M560 240H480V320H560V240Z" fill="white"/>
<path d="M480 320V321H479V320H480ZM481 240V320H479V240H481ZM480 319H560V321H480V319Z" fill="#F1F0F4" mask="url(#path-122-inside-61_4359_438)"/>
<mask id="path-124-inside-62_4359_438" fill="white">
<path d="M480 240H400V320H480V240Z"/>
</mask>
<path d="M480 240H400V320H480V240Z" fill="white"/>
<path d="M400 320V321H399V320H400ZM401 240V320H399V240H401ZM400 319H480V321H400V319Z" fill="#F1F0F4" mask="url(#path-124-inside-62_4359_438)"/>
<mask id="path-126-inside-63_4359_438" fill="white">
<path d="M400 240H320V320H400V240Z"/>
</mask>
<path d="M400 240H320V320H400V240Z" fill="white"/>
<path d="M320 320V321H319V320H320ZM321 240V320H319V240H321ZM320 319H400V321H320V319Z" fill="#F1F0F4" mask="url(#path-126-inside-63_4359_438)"/>
<mask id="path-128-inside-64_4359_438" fill="white">
<path d="M320 240H240V320H320V240Z"/>
</mask>
<path d="M320 240H240V320H320V240Z" fill="white"/>
<path d="M240 320V321H239V320H240ZM241 240V320H239V240H241ZM240 319H320V321H240V319Z" fill="#F1F0F4" mask="url(#path-128-inside-64_4359_438)"/>
<mask id="path-130-inside-65_4359_438" fill="white">
<path d="M240 240H160V320H240V240Z"/>
</mask>
<path d="M240 240H160V320H240V240Z" fill="white"/>
<path d="M160 320V321H159V320H160ZM161 240V320H159V240H161ZM160 319H240V321H160V319Z" fill="#F1F0F4" mask="url(#path-130-inside-65_4359_438)"/>
<mask id="path-132-inside-66_4359_438" fill="white">
<path d="M160 240H80V320H160V240Z"/>
</mask>
<path d="M160 240H80V320H160V240Z" fill="white"/>
<path d="M80 320V321H79V320H80ZM81 240V320H79V240H81ZM80 319H160V321H80V319Z" fill="#F1F0F4" mask="url(#path-132-inside-66_4359_438)"/>
<mask id="path-134-inside-67_4359_438" fill="white">
<path d="M80 240H0V320H80V240Z"/>
</mask>
<path d="M80 240H0V320H80V240Z" fill="white"/>
<path d="M0 320V321H-1V320H0ZM1 240V320H-1V240H1ZM0 319H80V321H0V319Z" fill="#F1F0F4" mask="url(#path-134-inside-67_4359_438)"/>
<mask id="path-136-inside-68_4359_438" fill="white">
<path d="M1360 320H1280V400H1360V320Z"/>
</mask>
<path d="M1360 320H1280V400H1360V320Z" fill="white"/>
<path d="M1280 400V401H1279V400H1280ZM1360 400H1361V401H1360V400ZM1281 320V400H1279V320H1281ZM1280 399H1360V401H1280V399ZM1359 400V320H1361V400H1359Z" fill="#F1F0F4" mask="url(#path-136-inside-68_4359_438)"/>
<mask id="path-138-inside-69_4359_438" fill="white">
<path d="M1280 320H1200V400H1280V320Z"/>
</mask>
<path d="M1280 320H1200V400H1280V320Z" fill="white"/>
<path d="M1200 400V401H1199V400H1200ZM1201 320V400H1199V320H1201ZM1200 399H1280V401H1200V399Z" fill="#F1F0F4" mask="url(#path-138-inside-69_4359_438)"/>
<mask id="path-140-inside-70_4359_438" fill="white">
<path d="M1200 320H1120V400H1200V320Z"/>
</mask>
<path d="M1200 320H1120V400H1200V320Z" fill="white"/>
<path d="M1120 400V401H1119V400H1120ZM1121 320V400H1119V320H1121ZM1120 399H1200V401H1120V399Z" fill="#F1F0F4" mask="url(#path-140-inside-70_4359_438)"/>
<mask id="path-142-inside-71_4359_438" fill="white">
<path d="M1120 320H1040V400H1120V320Z"/>
</mask>
<path d="M1120 320H1040V400H1120V320Z" fill="white"/>
<path d="M1040 400V401H1039V400H1040ZM1041 320V400H1039V320H1041ZM1040 399H1120V401H1040V399Z" fill="#F1F0F4" mask="url(#path-142-inside-71_4359_438)"/>
<mask id="path-144-inside-72_4359_438" fill="white">
<path d="M1040 320H960V400H1040V320Z"/>
</mask>
<path d="M1040 320H960V400H1040V320Z" fill="white"/>
<path d="M960 400V401H959V400H960ZM961 320V400H959V320H961ZM960 399H1040V401H960V399Z" fill="#F1F0F4" mask="url(#path-144-inside-72_4359_438)"/>
<mask id="path-146-inside-73_4359_438" fill="white">
<path d="M960 320H880V400H960V320Z"/>
</mask>
<path d="M960 320H880V400H960V320Z" fill="white"/>
<path d="M880 400V401H879V400H880ZM881 320V400H879V320H881ZM880 399H960V401H880V399Z" fill="#F1F0F4" mask="url(#path-146-inside-73_4359_438)"/>
<mask id="path-148-inside-74_4359_438" fill="white">
<path d="M880 320H800V400H880V320Z"/>
</mask>
<path d="M880 320H800V400H880V320Z" fill="white"/>
<path d="M800 400V401H799V400H800ZM801 320V400H799V320H801ZM800 399H880V401H800V399Z" fill="#F1F0F4" mask="url(#path-148-inside-74_4359_438)"/>
<mask id="path-150-inside-75_4359_438" fill="white">
<path d="M800 320H720V400H800V320Z"/>
</mask>
<path d="M800 320H720V400H800V320Z" fill="white"/>
<path d="M720 400V401H719V400H720ZM721 320V400H719V320H721ZM720 399H800V401H720V399Z" fill="#F1F0F4" mask="url(#path-150-inside-75_4359_438)"/>
<mask id="path-152-inside-76_4359_438" fill="white">
<path d="M720 320H640V400H720V320Z"/>
</mask>
<path d="M720 320H640V400H720V320Z" fill="white"/>
<path d="M640 400V401H639V400H640ZM641 320V400H639V320H641ZM640 399H720V401H640V399Z" fill="#F1F0F4" mask="url(#path-152-inside-76_4359_438)"/>
<mask id="path-154-inside-77_4359_438" fill="white">
<path d="M640 320H560V400H640V320Z"/>
</mask>
<path d="M640 320H560V400H640V320Z" fill="white"/>
<path d="M560 400V401H559V400H560ZM561 320V400H559V320H561ZM560 399H640V401H560V399Z" fill="#F1F0F4" mask="url(#path-154-inside-77_4359_438)"/>
<mask id="path-156-inside-78_4359_438" fill="white">
<path d="M560 320H480V400H560V320Z"/>
</mask>
<path d="M560 320H480V400H560V320Z" fill="white"/>
<path d="M480 400V401H479V400H480ZM481 320V400H479V320H481ZM480 399H560V401H480V399Z" fill="#F1F0F4" mask="url(#path-156-inside-78_4359_438)"/>
<mask id="path-158-inside-79_4359_438" fill="white">
<path d="M480 320H400V400H480V320Z"/>
</mask>
<path d="M480 320H400V400H480V320Z" fill="white"/>
<path d="M400 400V401H399V400H400ZM401 320V400H399V320H401ZM400 399H480V401H400V399Z" fill="#F1F0F4" mask="url(#path-158-inside-79_4359_438)"/>
<mask id="path-160-inside-80_4359_438" fill="white">
<path d="M400 320H320V400H400V320Z"/>
</mask>
<path d="M400 320H320V400H400V320Z" fill="white"/>
<path d="M320 400V401H319V400H320ZM321 320V400H319V320H321ZM320 399H400V401H320V399Z" fill="#F1F0F4" mask="url(#path-160-inside-80_4359_438)"/>
<mask id="path-162-inside-81_4359_438" fill="white">
<path d="M320 320H240V400H320V320Z"/>
</mask>
<path d="M320 320H240V400H320V320Z" fill="white"/>
<path d="M240 400V401H239V400H240ZM241 320V400H239V320H241ZM240 399H320V401H240V399Z" fill="#F1F0F4" mask="url(#path-162-inside-81_4359_438)"/>
<mask id="path-164-inside-82_4359_438" fill="white">
<path d="M240 320H160V400H240V320Z"/>
</mask>
<path d="M240 320H160V400H240V320Z" fill="white"/>
<path d="M160 400V401H159V400H160ZM161 320V400H159V320H161ZM160 399H240V401H160V399Z" fill="#F1F0F4" mask="url(#path-164-inside-82_4359_438)"/>
<mask id="path-166-inside-83_4359_438" fill="white">
<path d="M160 320H80V400H160V320Z"/>
</mask>
<path d="M160 320H80V400H160V320Z" fill="white"/>
<path d="M80 400V401H79V400H80ZM81 320V400H79V320H81ZM80 399H160V401H80V399Z" fill="#F1F0F4" mask="url(#path-166-inside-83_4359_438)"/>
<mask id="path-168-inside-84_4359_438" fill="white">
<path d="M80 320H0V400H80V320Z"/>
</mask>
<path d="M80 320H0V400H80V320Z" fill="white"/>
<path d="M0 400V401H-1V400H0ZM1 320V400H-1V320H1ZM0 399H80V401H0V399Z" fill="#F1F0F4" mask="url(#path-168-inside-84_4359_438)"/>
<mask id="path-170-inside-85_4359_438" fill="white">
<path d="M1360 400H1280V480H1360V400Z"/>
</mask>
<path d="M1360 400H1280V480H1360V400Z" fill="white"/>
<path d="M1280 480V481H1279V480H1280ZM1360 480H1361V481H1360V480ZM1281 400V480H1279V400H1281ZM1280 479H1360V481H1280V479ZM1359 480V400H1361V480H1359Z" fill="#F1F0F4" mask="url(#path-170-inside-85_4359_438)"/>
<mask id="path-172-inside-86_4359_438" fill="white">
<path d="M1280 400H1200V480H1280V400Z"/>
</mask>
<path d="M1280 400H1200V480H1280V400Z" fill="white"/>
<path d="M1200 480V481H1199V480H1200ZM1201 400V480H1199V400H1201ZM1200 479H1280V481H1200V479Z" fill="#F1F0F4" mask="url(#path-172-inside-86_4359_438)"/>
<mask id="path-174-inside-87_4359_438" fill="white">
<path d="M1200 400H1120V480H1200V400Z"/>
</mask>
<path d="M1200 400H1120V480H1200V400Z" fill="white"/>
<path d="M1120 480V481H1119V480H1120ZM1121 400V480H1119V400H1121ZM1120 479H1200V481H1120V479Z" fill="#F1F0F4" mask="url(#path-174-inside-87_4359_438)"/>
<mask id="path-176-inside-88_4359_438" fill="white">
<path d="M1120 400H1040V480H1120V400Z"/>
</mask>
<path d="M1120 400H1040V480H1120V400Z" fill="white"/>
<path d="M1040 480V481H1039V480H1040ZM1041 400V480H1039V400H1041ZM1040 479H1120V481H1040V479Z" fill="#F1F0F4" mask="url(#path-176-inside-88_4359_438)"/>
<mask id="path-178-inside-89_4359_438" fill="white">
<path d="M1040 400H960V480H1040V400Z"/>
</mask>
<path d="M1040 400H960V480H1040V400Z" fill="white"/>
<path d="M960 480V481H959V480H960ZM961 400V480H959V400H961ZM960 479H1040V481H960V479Z" fill="#F1F0F4" mask="url(#path-178-inside-89_4359_438)"/>
<mask id="path-180-inside-90_4359_438" fill="white">
<path d="M960 400H880V480H960V400Z"/>
</mask>
<path d="M960 400H880V480H960V400Z" fill="white"/>
<path d="M880 480V481H879V480H880ZM881 400V480H879V400H881ZM880 479H960V481H880V479Z" fill="#F1F0F4" mask="url(#path-180-inside-90_4359_438)"/>
<mask id="path-182-inside-91_4359_438" fill="white">
<path d="M880 400H800V480H880V400Z"/>
</mask>
<path d="M880 400H800V480H880V400Z" fill="white"/>
<path d="M800 480V481H799V480H800ZM801 400V480H799V400H801ZM800 479H880V481H800V479Z" fill="#F1F0F4" mask="url(#path-182-inside-91_4359_438)"/>
<mask id="path-184-inside-92_4359_438" fill="white">
<path d="M800 400H720V480H800V400Z"/>
</mask>
<path d="M800 400H720V480H800V400Z" fill="white"/>
<path d="M720 480V481H719V480H720ZM721 400V480H719V400H721ZM720 479H800V481H720V479Z" fill="#F1F0F4" mask="url(#path-184-inside-92_4359_438)"/>
<mask id="path-186-inside-93_4359_438" fill="white">
<path d="M720 400H640V480H720V400Z"/>
</mask>
<path d="M720 400H640V480H720V400Z" fill="white"/>
<path d="M640 480V481H639V480H640ZM641 400V480H639V400H641ZM640 479H720V481H640V479Z" fill="#F1F0F4" mask="url(#path-186-inside-93_4359_438)"/>
<mask id="path-188-inside-94_4359_438" fill="white">
<path d="M640 400H560V480H640V400Z"/>
</mask>
<path d="M640 400H560V480H640V400Z" fill="white"/>
<path d="M560 480V481H559V480H560ZM561 400V480H559V400H561ZM560 479H640V481H560V479Z" fill="#F1F0F4" mask="url(#path-188-inside-94_4359_438)"/>
<mask id="path-190-inside-95_4359_438" fill="white">
<path d="M560 400H480V480H560V400Z"/>
</mask>
<path d="M560 400H480V480H560V400Z" fill="white"/>
<path d="M480 480V481H479V480H480ZM481 400V480H479V400H481ZM480 479H560V481H480V479Z" fill="#F1F0F4" mask="url(#path-190-inside-95_4359_438)"/>
<mask id="path-192-inside-96_4359_438" fill="white">
<path d="M480 400H400V480H480V400Z"/>
</mask>
<path d="M480 400H400V480H480V400Z" fill="white"/>
<path d="M400 480V481H399V480H400ZM401 400V480H399V400H401ZM400 479H480V481H400V479Z" fill="#F1F0F4" mask="url(#path-192-inside-96_4359_438)"/>
<mask id="path-194-inside-97_4359_438" fill="white">
<path d="M400 400H320V480H400V400Z"/>
</mask>
<path d="M400 400H320V480H400V400Z" fill="white"/>
<path d="M320 480V481H319V480H320ZM321 400V480H319V400H321ZM320 479H400V481H320V479Z" fill="#F1F0F4" mask="url(#path-194-inside-97_4359_438)"/>
<mask id="path-196-inside-98_4359_438" fill="white">
<path d="M320 400H240V480H320V400Z"/>
</mask>
<path d="M320 400H240V480H320V400Z" fill="white"/>
<path d="M240 480V481H239V480H240ZM241 400V480H239V400H241ZM240 479H320V481H240V479Z" fill="#F1F0F4" mask="url(#path-196-inside-98_4359_438)"/>
<mask id="path-198-inside-99_4359_438" fill="white">
<path d="M240 400H160V480H240V400Z"/>
</mask>
<path d="M240 400H160V480H240V400Z" fill="white"/>
<path d="M160 480V481H159V480H160ZM161 400V480H159V400H161ZM160 479H240V481H160V479Z" fill="#F1F0F4" mask="url(#path-198-inside-99_4359_438)"/>
<mask id="path-200-inside-100_4359_438" fill="white">
<path d="M160 400H80V480H160V400Z"/>
</mask>
<path d="M160 400H80V480H160V400Z" fill="white"/>
<path d="M80 480V481H79V480H80ZM81 400V480H79V400H81ZM80 479H160V481H80V479Z" fill="#F1F0F4" mask="url(#path-200-inside-100_4359_438)"/>
<mask id="path-202-inside-101_4359_438" fill="white">
<path d="M80 400H0V480H80V400Z"/>
</mask>
<path d="M80 400H0V480H80V400Z" fill="white"/>
<path d="M0 480V481H-1V480H0ZM1 400V480H-1V400H1ZM0 479H80V481H0V479Z" fill="#F1F0F4" mask="url(#path-202-inside-101_4359_438)"/>
<mask id="path-204-inside-102_4359_438" fill="white">
<path d="M1360 480H1280V560H1360V480Z"/>
</mask>
<path d="M1360 480H1280V560H1360V480Z" fill="white"/>
<path d="M1280 560V561H1279V560H1280ZM1360 560H1361V561H1360V560ZM1281 480V560H1279V480H1281ZM1280 559H1360V561H1280V559ZM1359 560V480H1361V560H1359Z" fill="#F1F0F4" mask="url(#path-204-inside-102_4359_438)"/>
<mask id="path-206-inside-103_4359_438" fill="white">
<path d="M1280 480H1200V560H1280V480Z"/>
</mask>
<path d="M1280 480H1200V560H1280V480Z" fill="#F1F0F4"/>
<path d="M1200 560V561H1199V560H1200ZM1201 480V560H1199V480H1201ZM1200 559H1280V561H1200V559Z" fill="#F1F0F4" mask="url(#path-206-inside-103_4359_438)"/>
<mask id="path-208-inside-104_4359_438" fill="white">
<path d="M1200 480H1120V560H1200V480Z"/>
</mask>
<path d="M1200 480H1120V560H1200V480Z" fill="white"/>
<path d="M1120 560V561H1119V560H1120ZM1121 480V560H1119V480H1121ZM1120 559H1200V561H1120V559Z" fill="#F1F0F4" mask="url(#path-208-inside-104_4359_438)"/>
<mask id="path-210-inside-105_4359_438" fill="white">
<path d="M1120 480H1040V560H1120V480Z"/>
</mask>
<path d="M1120 480H1040V560H1120V480Z" fill="white"/>
<path d="M1040 560V561H1039V560H1040ZM1041 480V560H1039V480H1041ZM1040 559H1120V561H1040V559Z" fill="#F1F0F4" mask="url(#path-210-inside-105_4359_438)"/>
<mask id="path-212-inside-106_4359_438" fill="white">
<path d="M1040 480H960V560H1040V480Z"/>
</mask>
<path d="M1040 480H960V560H1040V480Z" fill="white"/>
<path d="M960 560V561H959V560H960ZM961 480V560H959V480H961ZM960 559H1040V561H960V559Z" fill="#F1F0F4" mask="url(#path-212-inside-106_4359_438)"/>
<mask id="path-214-inside-107_4359_438" fill="white">
<path d="M960 480H880V560H960V480Z"/>
</mask>
<path d="M960 480H880V560H960V480Z" fill="white"/>
<path d="M880 560V561H879V560H880ZM881 480V560H879V480H881ZM880 559H960V561H880V559Z" fill="#F1F0F4" mask="url(#path-214-inside-107_4359_438)"/>
<mask id="path-216-inside-108_4359_438" fill="white">
<path d="M880 480H800V560H880V480Z"/>
</mask>
<path d="M880 480H800V560H880V480Z" fill="white"/>
<path d="M800 560V561H799V560H800ZM801 480V560H799V480H801ZM800 559H880V561H800V559Z" fill="#F1F0F4" mask="url(#path-216-inside-108_4359_438)"/>
<mask id="path-218-inside-109_4359_438" fill="white">
<path d="M800 480H720V560H800V480Z"/>
</mask>
<path d="M800 480H720V560H800V480Z" fill="white"/>
<path d="M720 560V561H719V560H720ZM721 480V560H719V480H721ZM720 559H800V561H720V559Z" fill="#F1F0F4" mask="url(#path-218-inside-109_4359_438)"/>
<mask id="path-220-inside-110_4359_438" fill="white">
<path d="M720 480H640V560H720V480Z"/>
</mask>
<path d="M720 480H640V560H720V480Z" fill="white"/>
<path d="M640 560V561H639V560H640ZM641 480V560H639V480H641ZM640 559H720V561H640V559Z" fill="#F1F0F4" mask="url(#path-220-inside-110_4359_438)"/>
<mask id="path-222-inside-111_4359_438" fill="white">
<path d="M640 480H560V560H640V480Z"/>
</mask>
<path d="M640 480H560V560H640V480Z" fill="white"/>
<path d="M560 560V561H559V560H560ZM561 480V560H559V480H561ZM560 559H640V561H560V559Z" fill="#F1F0F4" mask="url(#path-222-inside-111_4359_438)"/>
<mask id="path-224-inside-112_4359_438" fill="white">
<path d="M560 480H480V560H560V480Z"/>
</mask>
<path d="M560 480H480V560H560V480Z" fill="white"/>
<path d="M480 560V561H479V560H480ZM481 480V560H479V480H481ZM480 559H560V561H480V559Z" fill="#F1F0F4" mask="url(#path-224-inside-112_4359_438)"/>
<mask id="path-226-inside-113_4359_438" fill="white">
<path d="M480 480H400V560H480V480Z"/>
</mask>
<path d="M480 480H400V560H480V480Z" fill="white"/>
<path d="M400 560V561H399V560H400ZM401 480V560H399V480H401ZM400 559H480V561H400V559Z" fill="#F1F0F4" mask="url(#path-226-inside-113_4359_438)"/>
<mask id="path-228-inside-114_4359_438" fill="white">
<path d="M400 480H320V560H400V480Z"/>
</mask>
<path d="M400 480H320V560H400V480Z" fill="white"/>
<path d="M320 560V561H319V560H320ZM321 480V560H319V480H321ZM320 559H400V561H320V559Z" fill="#F1F0F4" mask="url(#path-228-inside-114_4359_438)"/>
<mask id="path-230-inside-115_4359_438" fill="white">
<path d="M320 480H240V560H320V480Z"/>
</mask>
<path d="M320 480H240V560H320V480Z" fill="white"/>
<path d="M240 560V561H239V560H240ZM241 480V560H239V480H241ZM240 559H320V561H240V559Z" fill="#F1F0F4" mask="url(#path-230-inside-115_4359_438)"/>
<mask id="path-232-inside-116_4359_438" fill="white">
<path d="M240 480H160V560H240V480Z"/>
</mask>
<path d="M240 480H160V560H240V480Z" fill="white"/>
<path d="M160 560V561H159V560H160ZM161 480V560H159V480H161ZM160 559H240V561H160V559Z" fill="#F1F0F4" mask="url(#path-232-inside-116_4359_438)"/>
<mask id="path-234-inside-117_4359_438" fill="white">
<path d="M160 480H80V560H160V480Z"/>
</mask>
<path d="M160 480H80V560H160V480Z" fill="white"/>
<path d="M80 560V561H79V560H80ZM81 480V560H79V480H81ZM80 559H160V561H80V559Z" fill="#F1F0F4" mask="url(#path-234-inside-117_4359_438)"/>
<mask id="path-236-inside-118_4359_438" fill="white">
<path d="M80 480H0V560H80V480Z"/>
</mask>
<path d="M80 480H0V560H80V480Z" fill="white"/>
<path d="M0 560V561H-1V560H0ZM1 480V560H-1V480H1ZM0 559H80V561H0V559Z" fill="#F1F0F4" mask="url(#path-236-inside-118_4359_438)"/>
<mask id="path-238-inside-119_4359_438" fill="white">
<path d="M1360 560H1280V640H1360V560Z"/>
</mask>
<path d="M1360 560H1280V640H1360V560Z" fill="white"/>
<path d="M1280 640V641H1279V640H1280ZM1360 640H1361V641H1360V640ZM1281 560V640H1279V560H1281ZM1280 639H1360V641H1280V639ZM1359 640V560H1361V640H1359Z" fill="#F1F0F4" mask="url(#path-238-inside-119_4359_438)"/>
<mask id="path-240-inside-120_4359_438" fill="white">
<path d="M1280 560H1200V640H1280V560Z"/>
</mask>
<path d="M1280 560H1200V640H1280V560Z" fill="white"/>
<path d="M1200 640V641H1199V640H1200ZM1201 560V640H1199V560H1201ZM1200 639H1280V641H1200V639Z" fill="#F1F0F4" mask="url(#path-240-inside-120_4359_438)"/>
<mask id="path-242-inside-121_4359_438" fill="white">
<path d="M1200 560H1120V640H1200V560Z"/>
</mask>
<path d="M1200 560H1120V640H1200V560Z" fill="#F1F0F4"/>
<path d="M1120 640V641H1119V640H1120ZM1121 560V640H1119V560H1121ZM1120 639H1200V641H1120V639Z" fill="#F1F0F4" mask="url(#path-242-inside-121_4359_438)"/>
<mask id="path-244-inside-122_4359_438" fill="white">
<path d="M1120 560H1040V640H1120V560Z"/>
</mask>
<path d="M1120 560H1040V640H1120V560Z" fill="white"/>
<path d="M1040 640V641H1039V640H1040ZM1041 560V640H1039V560H1041ZM1040 639H1120V641H1040V639Z" fill="#F1F0F4" mask="url(#path-244-inside-122_4359_438)"/>
<mask id="path-246-inside-123_4359_438" fill="white">
<path d="M1040 560H960V640H1040V560Z"/>
</mask>
<path d="M1040 560H960V640H1040V560Z" fill="white"/>
<path d="M960 640V641H959V640H960ZM961 560V640H959V560H961ZM960 639H1040V641H960V639Z" fill="#F1F0F4" mask="url(#path-246-inside-123_4359_438)"/>
<mask id="path-248-inside-124_4359_438" fill="white">
<path d="M960 560H880V640H960V560Z"/>
</mask>
<path d="M960 560H880V640H960V560Z" fill="white"/>
<path d="M880 640V641H879V640H880ZM881 560V640H879V560H881ZM880 639H960V641H880V639Z" fill="#F1F0F4" mask="url(#path-248-inside-124_4359_438)"/>
<mask id="path-250-inside-125_4359_438" fill="white">
<path d="M880 560H800V640H880V560Z"/>
</mask>
<path d="M880 560H800V640H880V560Z" fill="white"/>
<path d="M800 640V641H799V640H800ZM801 560V640H799V560H801ZM800 639H880V641H800V639Z" fill="#F1F0F4" mask="url(#path-250-inside-125_4359_438)"/>
<mask id="path-252-inside-126_4359_438" fill="white">
<path d="M800 560H720V640H800V560Z"/>
</mask>
<path d="M800 560H720V640H800V560Z" fill="white"/>
<path d="M720 640V641H719V640H720ZM721 560V640H719V560H721ZM720 639H800V641H720V639Z" fill="#F1F0F4" mask="url(#path-252-inside-126_4359_438)"/>
<mask id="path-254-inside-127_4359_438" fill="white">
<path d="M720 560H640V640H720V560Z"/>
</mask>
<path d="M720 560H640V640H720V560Z" fill="white"/>
<path d="M640 640V641H639V640H640ZM641 560V640H639V560H641ZM640 639H720V641H640V639Z" fill="#F1F0F4" mask="url(#path-254-inside-127_4359_438)"/>
<mask id="path-256-inside-128_4359_438" fill="white">
<path d="M640 560H560V640H640V560Z"/>
</mask>
<path d="M640 560H560V640H640V560Z" fill="white"/>
<path d="M560 640V641H559V640H560ZM561 560V640H559V560H561ZM560 639H640V641H560V639Z" fill="#F1F0F4" mask="url(#path-256-inside-128_4359_438)"/>
<mask id="path-258-inside-129_4359_438" fill="white">
<path d="M560 560H480V640H560V560Z"/>
</mask>
<path d="M560 560H480V640H560V560Z" fill="white"/>
<path d="M480 640V641H479V640H480ZM481 560V640H479V560H481ZM480 639H560V641H480V639Z" fill="#F1F0F4" mask="url(#path-258-inside-129_4359_438)"/>
<mask id="path-260-inside-130_4359_438" fill="white">
<path d="M480 560H400V640H480V560Z"/>
</mask>
<path d="M480 560H400V640H480V560Z" fill="white"/>
<path d="M400 640V641H399V640H400ZM401 560V640H399V560H401ZM400 639H480V641H400V639Z" fill="#F1F0F4" mask="url(#path-260-inside-130_4359_438)"/>
<mask id="path-262-inside-131_4359_438" fill="white">
<path d="M400 560H320V640H400V560Z"/>
</mask>
<path d="M400 560H320V640H400V560Z" fill="white"/>
<path d="M320 640V641H319V640H320ZM321 560V640H319V560H321ZM320 639H400V641H320V639Z" fill="#F1F0F4" mask="url(#path-262-inside-131_4359_438)"/>
<mask id="path-264-inside-132_4359_438" fill="white">
<path d="M320 560H240V640H320V560Z"/>
</mask>
<path d="M320 560H240V640H320V560Z" fill="white"/>
<path d="M240 640V641H239V640H240ZM241 560V640H239V560H241ZM240 639H320V641H240V639Z" fill="#F1F0F4" mask="url(#path-264-inside-132_4359_438)"/>
<mask id="path-266-inside-133_4359_438" fill="white">
<path d="M240 560H160V640H240V560Z"/>
</mask>
<path d="M240 560H160V640H240V560Z" fill="white"/>
<path d="M160 640V641H159V640H160ZM161 560V640H159V560H161ZM160 639H240V641H160V639Z" fill="#F1F0F4" mask="url(#path-266-inside-133_4359_438)"/>
<mask id="path-268-inside-134_4359_438" fill="white">
<path d="M160 560H80V640H160V560Z"/>
</mask>
<path d="M160 560H80V640H160V560Z" fill="white"/>
<path d="M80 640V641H79V640H80ZM81 560V640H79V560H81ZM80 639H160V641H80V639Z" fill="#F1F0F4" mask="url(#path-268-inside-134_4359_438)"/>
<mask id="path-270-inside-135_4359_438" fill="white">
<path d="M80 560H0V640H80V560Z"/>
</mask>
<path d="M80 560H0V640H80V560Z" fill="white"/>
<path d="M0 640V641H-1V640H0ZM1 560V640H-1V560H1ZM0 639H80V641H0V639Z" fill="#F1F0F4" mask="url(#path-270-inside-135_4359_438)"/>
<mask id="path-272-inside-136_4359_438" fill="white">
<path d="M1360 640H1280V720H1360V640Z"/>
</mask>
<path d="M1360 640H1280V720H1360V640Z" fill="white"/>
<path d="M1280 720V721H1279V720H1280ZM1360 720H1361V721H1360V720ZM1281 640V720H1279V640H1281ZM1280 719H1360V721H1280V719ZM1359 720V640H1361V720H1359Z" fill="#F1F0F4" mask="url(#path-272-inside-136_4359_438)"/>
<mask id="path-274-inside-137_4359_438" fill="white">
<path d="M1280 640H1200V720H1280V640Z"/>
</mask>
<path d="M1280 640H1200V720H1280V640Z" fill="white"/>
<path d="M1200 720V721H1199V720H1200ZM1201 640V720H1199V640H1201ZM1200 719H1280V721H1200V719Z" fill="#F1F0F4" mask="url(#path-274-inside-137_4359_438)"/>
<mask id="path-276-inside-138_4359_438" fill="white">
<path d="M1200 640H1120V720H1200V640Z"/>
</mask>
<path d="M1200 640H1120V720H1200V640Z" fill="white"/>
<path d="M1120 720V721H1119V720H1120ZM1121 640V720H1119V640H1121ZM1120 719H1200V721H1120V719Z" fill="#F1F0F4" mask="url(#path-276-inside-138_4359_438)"/>
<mask id="path-278-inside-139_4359_438" fill="white">
<path d="M1120 640H1040V720H1120V640Z"/>
</mask>
<path d="M1120 640H1040V720H1120V640Z" fill="white"/>
<path d="M1040 720V721H1039V720H1040ZM1041 640V720H1039V640H1041ZM1040 719H1120V721H1040V719Z" fill="#F1F0F4" mask="url(#path-278-inside-139_4359_438)"/>
<mask id="path-280-inside-140_4359_438" fill="white">
<path d="M1040 640H960V720H1040V640Z"/>
</mask>
<path d="M1040 640H960V720H1040V640Z" fill="white"/>
<path d="M960 720V721H959V720H960ZM961 640V720H959V640H961ZM960 719H1040V721H960V719Z" fill="#F1F0F4" mask="url(#path-280-inside-140_4359_438)"/>
<mask id="path-282-inside-141_4359_438" fill="white">
<path d="M960 640H880V720H960V640Z"/>
</mask>
<path d="M960 640H880V720H960V640Z" fill="white"/>
<path d="M880 720V721H879V720H880ZM881 640V720H879V640H881ZM880 719H960V721H880V719Z" fill="#F1F0F4" mask="url(#path-282-inside-141_4359_438)"/>
<mask id="path-284-inside-142_4359_438" fill="white">
<path d="M880 640H800V720H880V640Z"/>
</mask>
<path d="M880 640H800V720H880V640Z" fill="white"/>
<path d="M800 720V721H799V720H800ZM801 640V720H799V640H801ZM800 719H880V721H800V719Z" fill="#F1F0F4" mask="url(#path-284-inside-142_4359_438)"/>
<mask id="path-286-inside-143_4359_438" fill="white">
<path d="M800 640H720V720H800V640Z"/>
</mask>
<path d="M800 640H720V720H800V640Z" fill="white"/>
<path d="M720 720V721H719V720H720ZM721 640V720H719V640H721ZM720 719H800V721H720V719Z" fill="#F1F0F4" mask="url(#path-286-inside-143_4359_438)"/>
<mask id="path-288-inside-144_4359_438" fill="white">
<path d="M720 640H640V720H720V640Z"/>
</mask>
<path d="M720 640H640V720H720V640Z" fill="white"/>
<path d="M640 720V721H639V720H640ZM641 640V720H639V640H641ZM640 719H720V721H640V719Z" fill="#F1F0F4" mask="url(#path-288-inside-144_4359_438)"/>
<mask id="path-290-inside-145_4359_438" fill="white">
<path d="M640 640H560V720H640V640Z"/>
</mask>
<path d="M640 640H560V720H640V640Z" fill="white"/>
<path d="M560 720V721H559V720H560ZM561 640V720H559V640H561ZM560 719H640V721H560V719Z" fill="#F1F0F4" mask="url(#path-290-inside-145_4359_438)"/>
<mask id="path-292-inside-146_4359_438" fill="white">
<path d="M560 640H480V720H560V640Z"/>
</mask>
<path d="M560 640H480V720H560V640Z" fill="white"/>
<path d="M480 720V721H479V720H480ZM481 640V720H479V640H481ZM480 719H560V721H480V719Z" fill="#F1F0F4" mask="url(#path-292-inside-146_4359_438)"/>
<mask id="path-294-inside-147_4359_438" fill="white">
<path d="M480 640H400V720H480V640Z"/>
</mask>
<path d="M480 640H400V720H480V640Z" fill="white"/>
<path d="M400 720V721H399V720H400ZM401 640V720H399V640H401ZM400 719H480V721H400V719Z" fill="#F1F0F4" mask="url(#path-294-inside-147_4359_438)"/>
<mask id="path-296-inside-148_4359_438" fill="white">
<path d="M400 640H320V720H400V640Z"/>
</mask>
<path d="M400 640H320V720H400V640Z" fill="white"/>
<path d="M320 720V721H319V720H320ZM321 640V720H319V640H321ZM320 719H400V721H320V719Z" fill="#F1F0F4" mask="url(#path-296-inside-148_4359_438)"/>
<mask id="path-298-inside-149_4359_438" fill="white">
<path d="M320 640H240V720H320V640Z"/>
</mask>
<path d="M320 640H240V720H320V640Z" fill="white"/>
<path d="M240 720V721H239V720H240ZM241 640V720H239V640H241ZM240 719H320V721H240V719Z" fill="#F1F0F4" mask="url(#path-298-inside-149_4359_438)"/>
<mask id="path-300-inside-150_4359_438" fill="white">
<path d="M240 640H160V720H240V640Z"/>
</mask>
<path d="M240 640H160V720H240V640Z" fill="white"/>
<path d="M160 720V721H159V720H160ZM161 640V720H159V640H161ZM160 719H240V721H160V719Z" fill="#F1F0F4" mask="url(#path-300-inside-150_4359_438)"/>
<mask id="path-302-inside-151_4359_438" fill="white">
<path d="M160 640H80V720H160V640Z"/>
</mask>
<path d="M160 640H80V720H160V640Z" fill="white"/>
<path d="M80 720V721H79V720H80ZM81 640V720H79V640H81ZM80 719H160V721H80V719Z" fill="#F1F0F4" mask="url(#path-302-inside-151_4359_438)"/>
<mask id="path-304-inside-152_4359_438" fill="white">
<path d="M80 640H0V720H80V640Z"/>
</mask>
<path d="M80 640H0V720H80V640Z" fill="white"/>
<path d="M0 720V721H-1V720H0ZM1 640V720H-1V640H1ZM0 719H80V721H0V719Z" fill="#F1F0F4" mask="url(#path-304-inside-152_4359_438)"/>
<mask id="path-306-inside-153_4359_438" fill="white">
<path d="M1360 720H1280V800H1360V720Z"/>
</mask>
<path d="M1360 720H1280V800H1360V720Z" fill="white"/>
<path d="M1280 800V801H1279V800H1280ZM1360 800H1361V801H1360V800ZM1281 720V800H1279V720H1281ZM1280 799H1360V801H1280V799ZM1359 800V720H1361V800H1359Z" fill="#F1F0F4" mask="url(#path-306-inside-153_4359_438)"/>
<mask id="path-308-inside-154_4359_438" fill="white">
<path d="M1280 720H1200V800H1280V720Z"/>
</mask>
<path d="M1280 720H1200V800H1280V720Z" fill="white"/>
<path d="M1200 800V801H1199V800H1200ZM1201 720V800H1199V720H1201ZM1200 799H1280V801H1200V799Z" fill="#F1F0F4" mask="url(#path-308-inside-154_4359_438)"/>
<mask id="path-310-inside-155_4359_438" fill="white">
<path d="M1200 720H1120V800H1200V720Z"/>
</mask>
<path d="M1200 720H1120V800H1200V720Z" fill="white"/>
<path d="M1120 800V801H1119V800H1120ZM1121 720V800H1119V720H1121ZM1120 799H1200V801H1120V799Z" fill="#F1F0F4" mask="url(#path-310-inside-155_4359_438)"/>
<mask id="path-312-inside-156_4359_438" fill="white">
<path d="M1120 720H1040V800H1120V720Z"/>
</mask>
<path d="M1120 720H1040V800H1120V720Z" fill="white"/>
<path d="M1040 800V801H1039V800H1040ZM1041 720V800H1039V720H1041ZM1040 799H1120V801H1040V799Z" fill="#F1F0F4" mask="url(#path-312-inside-156_4359_438)"/>
<mask id="path-314-inside-157_4359_438" fill="white">
<path d="M1040 720H960V800H1040V720Z"/>
</mask>
<path d="M1040 720H960V800H1040V720Z" fill="white"/>
<path d="M960 800V801H959V800H960ZM961 720V800H959V720H961ZM960 799H1040V801H960V799Z" fill="#F1F0F4" mask="url(#path-314-inside-157_4359_438)"/>
<mask id="path-316-inside-158_4359_438" fill="white">
<path d="M960 720H880V800H960V720Z"/>
</mask>
<path d="M960 720H880V800H960V720Z" fill="white"/>
<path d="M880 800V801H879V800H880ZM881 720V800H879V720H881ZM880 799H960V801H880V799Z" fill="#F1F0F4" mask="url(#path-316-inside-158_4359_438)"/>
<mask id="path-318-inside-159_4359_438" fill="white">
<path d="M880 720H800V800H880V720Z"/>
</mask>
<path d="M880 720H800V800H880V720Z" fill="white"/>
<path d="M800 800V801H799V800H800ZM801 720V800H799V720H801ZM800 799H880V801H800V799Z" fill="#F1F0F4" mask="url(#path-318-inside-159_4359_438)"/>
<mask id="path-320-inside-160_4359_438" fill="white">
<path d="M800 720H720V800H800V720Z"/>
</mask>
<path d="M800 720H720V800H800V720Z" fill="white"/>
<path d="M720 800V801H719V800H720ZM721 720V800H719V720H721ZM720 799H800V801H720V799Z" fill="#F1F0F4" mask="url(#path-320-inside-160_4359_438)"/>
<mask id="path-322-inside-161_4359_438" fill="white">
<path d="M720 720H640V800H720V720Z"/>
</mask>
<path d="M720 720H640V800H720V720Z" fill="white"/>
<path d="M640 800V801H639V800H640ZM641 720V800H639V720H641ZM640 799H720V801H640V799Z" fill="#F1F0F4" mask="url(#path-322-inside-161_4359_438)"/>
<mask id="path-324-inside-162_4359_438" fill="white">
<path d="M640 720H560V800H640V720Z"/>
</mask>
<path d="M640 720H560V800H640V720Z" fill="white"/>
<path d="M560 800V801H559V800H560ZM561 720V800H559V720H561ZM560 799H640V801H560V799Z" fill="#F1F0F4" mask="url(#path-324-inside-162_4359_438)"/>
<mask id="path-326-inside-163_4359_438" fill="white">
<path d="M560 720H480V800H560V720Z"/>
</mask>
<path d="M560 720H480V800H560V720Z" fill="white"/>
<path d="M480 800V801H479V800H480ZM481 720V800H479V720H481ZM480 799H560V801H480V799Z" fill="#F1F0F4" mask="url(#path-326-inside-163_4359_438)"/>
<mask id="path-328-inside-164_4359_438" fill="white">
<path d="M480 720H400V800H480V720Z"/>
</mask>
<path d="M480 720H400V800H480V720Z" fill="white"/>
<path d="M400 800V801H399V800H400ZM401 720V800H399V720H401ZM400 799H480V801H400V799Z" fill="#F1F0F4" mask="url(#path-328-inside-164_4359_438)"/>
<mask id="path-330-inside-165_4359_438" fill="white">
<path d="M400 720H320V800H400V720Z"/>
</mask>
<path d="M400 720H320V800H400V720Z" fill="white"/>
<path d="M320 800V801H319V800H320ZM321 720V800H319V720H321ZM320 799H400V801H320V799Z" fill="#F1F0F4" mask="url(#path-330-inside-165_4359_438)"/>
<mask id="path-332-inside-166_4359_438" fill="white">
<path d="M320 720H240V800H320V720Z"/>
</mask>
<path d="M320 720H240V800H320V720Z" fill="white"/>
<path d="M240 800V801H239V800H240ZM241 720V800H239V720H241ZM240 799H320V801H240V799Z" fill="#F1F0F4" mask="url(#path-332-inside-166_4359_438)"/>
<mask id="path-334-inside-167_4359_438" fill="white">
<path d="M240 720H160V800H240V720Z"/>
</mask>
<path d="M240 720H160V800H240V720Z" fill="white"/>
<path d="M160 800V801H159V800H160ZM161 720V800H159V720H161ZM160 799H240V801H160V799Z" fill="#F1F0F4" mask="url(#path-334-inside-167_4359_438)"/>
<mask id="path-336-inside-168_4359_438" fill="white">
<path d="M160 720H80V800H160V720Z"/>
</mask>
<path d="M160 720H80V800H160V720Z" fill="white"/>
<path d="M80 800V801H79V800H80ZM81 720V800H79V720H81ZM80 799H160V801H80V799Z" fill="#F1F0F4" mask="url(#path-336-inside-168_4359_438)"/>
<mask id="path-338-inside-169_4359_438" fill="white">
<path d="M80 720H0V800H80V720Z"/>
</mask>
<path d="M80 720H0V800H80V720Z" fill="white"/>
<path d="M0 800V801H-1V800H0ZM1 720V800H-1V720H1ZM0 799H80V801H0V799Z" fill="#F1F0F4" mask="url(#path-338-inside-169_4359_438)"/>
<rect width="240" height="822" transform="matrix(-1 0 0 1 1360 -11)" fill="url(#paint0_linear_4359_438)"/>
<rect y="-11" width="240" height="822" fill="url(#paint1_linear_4359_438)"/>
<rect x="-16" y="800" width="240" height="1392" transform="rotate(-90 -16 800)" fill="url(#paint2_linear_4359_438)"/>
</g>
<defs>
<linearGradient id="paint0_linear_4359_438" x1="-3.57628e-06" y1="411" x2="240" y2="411" gradientUnits="userSpaceOnUse">
<stop stop-color="white"/>
<stop offset="1" stop-color="white" stop-opacity="0"/>
</linearGradient>
<linearGradient id="paint1_linear_4359_438" x1="-3.57628e-06" y1="400" x2="240" y2="400" gradientUnits="userSpaceOnUse">
<stop stop-color="white"/>
<stop offset="1" stop-color="white" stop-opacity="0"/>
</linearGradient>
<linearGradient id="paint2_linear_4359_438" x1="-16" y1="1496" x2="224" y2="1496" gradientUnits="userSpaceOnUse">
<stop stop-color="white"/>
<stop offset="1" stop-color="white" stop-opacity="0"/>
</linearGradient>
<clipPath id="clip0_4359_438">
<rect width="1360" height="800" fill="white" transform="matrix(-1 0 0 1 1360 0)"/>
</clipPath>
</defs>
</svg>
